<?xml version="1.0" encoding="UTF-8"?>
<svg xmlns="http://www.w3.org/2000/svg" viewBox="0 0 1684 440" width="1684" height="440" role="img" aria-label="RustyClinic">
  <rect width="1684" height="440" fill="#F8F6F4"/>
  <g transform="translate(70.0 40.0) scale(0.703125)">
    <rect x="189" y="74" width="134" height="134" rx="22" fill="#1E293B"/>
    <rect x="73" y="189" width="134" height="134" rx="22" fill="#1E293B"/>
    <rect x="189" y="306" width="134" height="134" rx="22" fill="#1E293B"/>
    <g transform="translate(371 255) rotate(3)">
      <rect x="-67" y="-67" width="134" height="134" rx="22" fill="#C2410C"/>
    </g>
  </g>
  <path d="M494.8 284.6V165.3H524.5L527.2 186.1H528.0Q534.6 174.1 543.7 168.3Q552.8 162.4 561.9 162.4Q567.1 162.4 570.4 163.0Q573.8 163.6 576.3 164.8L569.3 195.8Q566.3 195.1 563.8 194.7Q561.2 194.4 557.3 194.4Q550.6 194.4 543.3 199.2Q536.0 203.9 531.3 216.0V284.6Z M624.4 287.4Q604.9 287.4 596.1 274.5Q587.3 261.6 587.3 239.2V165.3H623.8V234.6Q623.8 247.2 627.3 251.8Q630.7 256.4 638.0 256.4Q644.4 256.4 649.0 253.5Q653.5 250.6 658.4 243.8V165.3H694.9V284.6H665.2L662.5 268.2H661.7Q654.3 277.0 645.4 282.2Q636.5 287.4 624.4 287.4Z M757.9 287.4Q746.0 287.4 733.5 282.8Q721.0 278.2 712.0 269.5L727.4 249.1Q735.7 255.5 743.7 258.0Q751.7 260.5 758.7 260.5Q766.3 260.5 769.8 257.9Q773.2 255.3 773.2 250.9Q773.2 247.1 770.1 244.6Q767.0 242.0 761.8 240.0Q756.7 238.0 750.2 235.6Q741.7 232.4 734.5 227.7Q727.4 222.9 723.0 216.1Q718.6 209.2 718.6 200.0Q718.6 183.1 731.3 172.8Q743.9 162.4 764.5 162.4Q777.6 162.4 788.4 166.7Q799.3 171.0 806.9 177.7L791.5 198.1Q784.9 193.4 778.4 191.4Q771.9 189.4 765.7 189.4Q759.1 189.4 755.9 191.8Q752.7 194.2 752.7 198.3Q752.7 201.6 755.0 203.8Q757.3 206.1 762.2 208.1Q767.1 210.0 774.6 212.5Q783.8 215.5 791.2 220.2Q798.6 225.0 802.9 231.9Q807.3 238.9 807.3 248.8Q807.3 259.6 801.6 268.4Q795.9 277.1 785.0 282.3Q774.0 287.4 757.9 287.4Z M868.1 287.3Q845.8 287.3 836.0 274.3Q826.3 261.3 826.3 240.5V193.9H810.1V166.7L828.3 165.3L832.6 129.0H862.8V165.3H891.1V193.9H862.8V240.0Q862.8 250.1 867.1 254.4Q871.3 258.7 878.0 258.7Q881.0 258.7 883.8 258.3Q886.7 257.9 889.1 256.9L895.0 282.4Q890.4 284.2 883.5 285.8Q876.7 287.3 868.1 287.3Z M925.4 330.8Q919.9 330.8 916.0 330.1Q912.0 329.4 908.2 328.0L914.7 301.1Q917.5 301.8 919.2 302.0Q920.9 302.2 922.6 302.2Q931.4 302.2 936.2 298.0Q940.9 293.8 943.0 287.3L944.7 281.3L898.9 165.3H935.5L952.0 215.5Q954.7 223.5 956.8 232.0Q958.9 240.4 961.2 249.3H962.2Q964.2 240.8 966.2 232.4Q968.2 224.0 970.3 215.5L984.3 165.3H1019.2L978.1 285.2Q972.3 300.3 965.5 310.5Q958.8 320.6 949.2 325.7Q939.6 330.8 925.4 330.8Z M1085.4 287.4Q1068.3 287.4 1054.7 280.0Q1041.1 272.7 1033.3 258.7Q1025.4 244.7 1025.4 225.0Q1025.4 205.2 1034.1 191.2Q1042.8 177.2 1057.1 169.8Q1071.3 162.4 1087.9 162.4Q1098.8 162.4 1107.6 165.9Q1116.3 169.4 1122.7 175.2L1105.6 197.7Q1102.4 195.1 1098.7 193.5Q1094.9 191.9 1089.9 191.9Q1081.8 191.9 1075.7 195.9Q1069.6 200.0 1066.2 207.4Q1062.7 214.9 1062.7 225.0Q1062.7 235.0 1066.2 242.5Q1069.6 249.9 1075.6 254.0Q1081.5 258.0 1089.1 258.0Q1094.8 258.0 1100.0 255.9Q1105.2 253.9 1109.7 250.4L1123.9 272.9Q1116.5 279.6 1106.4 283.5Q1096.3 287.4 1085.4 287.4Z M1175.0 287.3Q1162.5 287.3 1155.2 282.2Q1147.9 277.2 1144.8 268.0Q1141.6 258.7 1141.6 246.4V116.7H1178.0V247.8Q1178.0 253.6 1180.2 255.7Q1182.4 257.9 1184.6 257.9Q1185.7 257.9 1186.6 257.8Q1187.4 257.6 1188.8 257.4L1193.2 284.3Q1190.3 285.5 1185.8 286.4Q1181.2 287.3 1175.0 287.3Z M1207.8 284.6V165.3H1244.3V284.6Z M1271.9 284.6V165.3H1301.7L1304.3 180.3H1305.2Q1312.6 173.0 1321.9 167.7Q1331.2 162.4 1343.4 162.4Q1363.0 162.4 1371.7 175.4Q1380.4 188.3 1380.4 210.6V284.6H1343.9V215.3Q1343.9 202.7 1340.5 198.1Q1337.1 193.5 1329.7 193.5Q1323.2 193.5 1318.7 196.4Q1314.1 199.2 1308.4 204.6V284.6Z M1406.8 284.6V165.3H1443.2V284.6ZM1425.0 148.4Q1415.9 148.4 1410.2 143.2Q1404.5 138.0 1404.5 129.5Q1404.5 120.9 1410.2 115.7Q1415.9 110.6 1425.0 110.6Q1434.1 110.6 1439.8 115.7Q1445.5 120.9 1445.5 129.5Q1445.5 138.0 1439.8 143.2Q1434.1 148.4 1425.0 148.4Z M1524.1 287.4Q1507.0 287.4 1493.4 280.0Q1479.9 272.7 1472.0 258.7Q1464.1 244.7 1464.1 225.0Q1464.1 205.2 1472.8 191.2Q1481.5 177.2 1495.8 169.8Q1510.0 162.4 1526.6 162.4Q1537.5 162.4 1546.3 165.9Q1555.0 169.4 1561.4 175.2L1544.4 197.7Q1541.1 195.1 1537.4 193.5Q1533.6 191.9 1528.6 191.9Q1520.5 191.9 1514.4 195.9Q1508.3 200.0 1504.9 207.4Q1501.5 214.9 1501.5 225.0Q1501.5 235.0 1504.9 242.5Q1508.4 249.9 1514.3 254.0Q1520.2 258.0 1527.8 258.0Q1533.6 258.0 1538.7 255.9Q1543.9 253.9 1548.4 250.4L1562.7 272.9Q1555.2 279.6 1545.1 283.5Q1535.0 287.4 1524.1 287.4Z" fill="#1E293B"/>
  <g transform="translate(1226.1 123.8) rotate(3)">
    <rect x="-24.6" y="-24.6" width="49.2" height="49.2" rx="8.1" fill="#C2410C"/>
  </g>
</svg>
