<?xml version="1.0" encoding="UTF-8"?>
<svg xmlns="http://www.w3.org/2000/svg" viewBox="0 0 1243 420" width="1243" height="420" role="img" aria-label="rustyclinic">
  <rect width="1243" height="420" fill="#F8F6F4"/>
  <path d="M110.0 278.6V164.4H138.5L141.0 184.3H141.9Q148.1 172.8 156.9 167.2Q165.6 161.6 174.3 161.6Q179.3 161.6 182.5 162.2Q185.7 162.7 188.1 163.9L181.4 193.6Q178.6 192.9 176.1 192.6Q173.7 192.2 169.9 192.2Q163.4 192.2 156.5 196.8Q149.5 201.4 145.0 213.0V278.6Z M234.2 281.4Q215.5 281.4 207.1 269.0Q198.7 256.6 198.7 235.2V164.4H233.6V230.7Q233.6 242.8 236.9 247.2Q240.3 251.6 247.2 251.6Q253.4 251.6 257.8 248.8Q262.1 246.1 266.8 239.6V164.4H301.7V278.6H273.3L270.7 263.0H269.9Q262.8 271.4 254.3 276.4Q245.8 281.4 234.2 281.4Z M362.1 281.4Q350.8 281.4 338.8 277.0Q326.8 272.5 318.1 264.2L332.9 244.6Q340.8 250.8 348.5 253.2Q356.2 255.6 363.0 255.6Q370.2 255.6 373.5 253.1Q376.8 250.6 376.8 246.4Q376.8 242.8 373.8 240.3Q370.8 237.8 365.9 235.9Q361.0 234.0 354.7 231.7Q346.6 228.7 339.7 224.1Q332.9 219.5 328.7 213.0Q324.5 206.5 324.5 197.6Q324.5 181.4 336.6 171.5Q348.7 161.6 368.5 161.6Q381.0 161.6 391.4 165.7Q401.8 169.8 409.1 176.2L394.3 195.8Q388.0 191.3 381.8 189.4Q375.6 187.4 369.6 187.4Q363.3 187.4 360.2 189.7Q357.2 192.1 357.2 196.0Q357.2 199.1 359.4 201.3Q361.6 203.5 366.2 205.3Q370.9 207.2 378.2 209.6Q386.9 212.4 394.0 217.0Q401.2 221.5 405.3 228.2Q409.4 234.9 409.4 244.3Q409.4 254.7 404.0 263.1Q398.6 271.5 388.1 276.5Q377.6 281.4 362.1 281.4Z M467.7 281.2Q446.4 281.2 437.0 268.8Q427.7 256.4 427.7 236.4V191.7H412.2V165.7L429.6 164.4L433.8 129.5H462.7V164.4H489.8V191.7H462.7V236.0Q462.7 245.6 466.8 249.7Q470.8 253.8 477.2 253.8Q480.1 253.8 482.8 253.4Q485.6 253.0 487.9 252.1L493.5 276.6Q489.1 278.3 482.5 279.8Q476.0 281.2 467.7 281.2Z M522.7 323.0Q517.4 323.0 513.6 322.3Q509.8 321.6 506.2 320.3L512.4 294.5Q515.1 295.2 516.7 295.4Q518.3 295.5 520.0 295.5Q528.4 295.5 533.0 291.5Q537.6 287.5 539.6 281.2L541.2 275.5L497.2 164.4H532.3L548.1 212.5Q550.7 220.2 552.8 228.2Q554.8 236.3 557.0 244.9H557.9Q559.9 236.7 561.8 228.6Q563.6 220.6 565.7 212.5L579.1 164.4H612.6L573.1 279.3Q567.6 293.7 561.1 303.4Q554.6 313.2 545.5 318.1Q536.3 323.0 522.7 323.0Z M676.0 281.4Q659.6 281.4 646.6 274.3Q633.6 267.2 626.0 253.8Q618.5 240.5 618.5 221.5Q618.5 202.5 626.8 189.2Q635.2 175.8 648.8 168.7Q662.5 161.6 678.3 161.6Q688.9 161.6 697.2 165.0Q705.6 168.3 711.8 173.8L695.4 195.4Q692.3 192.9 688.7 191.3Q685.1 189.8 680.3 189.8Q672.5 189.8 666.7 193.7Q660.8 197.6 657.6 204.7Q654.3 211.8 654.3 221.5Q654.3 231.2 657.6 238.3Q660.9 245.4 666.6 249.3Q672.2 253.2 679.6 253.2Q685.0 253.2 690.0 251.2Q695.0 249.2 699.3 245.9L712.9 267.4Q705.8 273.9 696.1 277.6Q686.4 281.4 676.0 281.4Z M761.9 281.2Q749.9 281.2 742.9 276.4Q735.9 271.6 732.9 262.7Q729.8 253.9 729.8 242.0V117.8H764.8V243.4Q764.8 248.9 766.8 251.0Q768.9 253.1 771.1 253.1Q772.1 253.1 772.9 252.9Q773.7 252.8 775.1 252.6L779.3 278.3Q776.6 279.6 772.2 280.4Q767.8 281.2 761.9 281.2Z M793.3 278.6V164.4H828.3V278.6Z M854.7 278.6V164.4H883.2L885.7 178.7H886.6Q893.8 171.7 902.7 166.7Q911.5 161.6 923.2 161.6Q942.0 161.6 950.3 174.0Q958.7 186.4 958.7 207.8V278.6H923.7V212.3Q923.7 200.2 920.5 195.8Q917.2 191.4 910.1 191.4Q903.9 191.4 899.5 194.1Q895.2 196.9 889.7 202.0V278.6Z M984.0 278.6V164.4H1018.9V278.6ZM1001.4 148.2Q992.7 148.2 987.3 143.2Q981.8 138.2 981.8 130.0Q981.8 121.8 987.3 116.8Q992.7 111.9 1001.4 111.9Q1010.2 111.9 1015.6 116.8Q1021.1 121.8 1021.1 130.0Q1021.1 138.2 1015.6 143.2Q1010.2 148.2 1001.4 148.2Z M1096.4 281.4Q1080.0 281.4 1067.0 274.3Q1054.0 267.2 1046.5 253.8Q1038.9 240.5 1038.9 221.5Q1038.9 202.5 1047.3 189.2Q1055.6 175.8 1069.3 168.7Q1082.9 161.6 1098.8 161.6Q1109.3 161.6 1117.7 165.0Q1126.1 168.3 1132.2 173.8L1115.8 195.4Q1112.7 192.9 1109.1 191.3Q1105.6 189.8 1100.8 189.8Q1093.0 189.8 1087.1 193.7Q1081.3 197.6 1078.0 204.7Q1074.7 211.8 1074.7 221.5Q1074.7 231.2 1078.0 238.3Q1081.3 245.4 1087.0 249.3Q1092.7 253.2 1100.0 253.2Q1105.5 253.2 1110.5 251.2Q1115.4 249.2 1119.7 245.9L1133.4 267.4Q1126.2 273.9 1116.6 277.6Q1106.9 281.4 1096.4 281.4Z" fill="#1E293B"/>
  <g transform="translate(810.8 124.6) rotate(3)">
    <rect x="-23.6" y="-23.6" width="47.1" height="47.1" rx="7.7" fill="#C2410C"/>
  </g>
</svg>
